<svg width="25" height="21" viewBox="0 0 25 21" fill="none" xmlns="http://www.w3.org/2000/svg">
<path d="M19.3414 7.63833L19.0317 8.19595C18.9184 8.40262 18.6766 8.4884 18.4614 8.40652C18.0157 8.23494 17.6078 7.98928 17.249 7.68122C17.0753 7.53304 17.03 7.27178 17.1433 7.06901L17.453 6.51139C17.1924 6.19944 16.9884 5.83679 16.8524 5.44295H16.2293C16.0027 5.44295 15.8063 5.27528 15.7685 5.04131C15.693 4.57338 15.6892 4.08205 15.7685 3.59462C15.8063 3.36066 16.0027 3.18908 16.2293 3.18908H16.8524C16.9884 2.79524 17.1924 2.4326 17.453 2.12064L17.1433 1.56302C17.03 1.36025 17.0715 1.09899 17.249 0.950815C17.6078 0.64276 18.0195 0.397096 18.4614 0.225522C18.6766 0.143634 18.9184 0.229421 19.0317 0.43609L19.3414 0.993708C19.7379 0.919619 20.142 0.919619 20.5386 0.993708L20.8483 0.43609C20.9616 0.229421 21.2033 0.143634 21.4186 0.225522C21.8643 0.397096 22.2722 0.64276 22.6309 0.950815C22.8047 1.09899 22.85 1.36025 22.7367 1.56302L22.427 2.12064C22.6876 2.4326 22.8915 2.79524 23.0275 3.18908H23.6507C23.8773 3.18908 24.0737 3.35676 24.1115 3.59073C24.187 4.05866 24.1908 4.54998 24.1115 5.03741C24.0737 5.27138 23.8773 5.44295 23.6507 5.44295H23.0275C22.8915 5.83679 22.6876 6.19944 22.427 6.51139L22.7367 7.06901C22.85 7.27178 22.8085 7.53304 22.6309 7.68122C22.2722 7.98928 21.8605 8.23494 21.4186 8.40652C21.2033 8.4884 20.9616 8.40262 20.8483 8.19595L20.5386 7.63833C20.1458 7.71242 19.7379 7.71242 19.3414 7.63833ZM18.9448 5.34547C20.3989 6.4997 22.0569 4.78785 20.9389 3.28657C19.4849 2.12844 17.8269 3.84419 18.9448 5.34547ZM14.5901 11.3467L15.8629 12.0018C16.2444 12.228 16.4106 12.7076 16.2595 13.1365C15.9233 14.0802 15.2624 14.9458 14.6506 15.7023C14.3711 16.0494 13.8877 16.1352 13.5062 15.909L12.4071 15.2539C11.8029 15.7881 11.1004 16.2132 10.3337 16.49V17.8002C10.3337 18.2526 10.0202 18.6425 9.58965 18.7205C8.66056 18.8843 7.68615 18.8921 6.72306 18.7205C6.28873 18.6425 5.9677 18.2565 5.9677 17.8002V16.49C5.20101 16.2093 4.49853 15.7881 3.89424 15.2539L2.79519 15.9051C2.41751 16.1313 1.9303 16.0455 1.65082 15.6984C1.03898 14.942 0.393142 14.0763 0.0570067 13.1365C-0.0940654 12.7115 0.0721138 12.2318 0.453571 12.0018L1.71125 11.3467C1.56395 10.5317 1.56395 9.69333 1.71125 8.87445L0.453571 8.21544C0.0721138 7.98928 -0.0978422 7.50965 0.0570067 7.08461C0.393142 6.14095 1.03898 5.27528 1.65082 4.51879C1.9303 4.17174 2.41373 4.08595 2.79519 4.31212L3.89424 4.96722C4.49853 4.433 5.20101 4.00796 5.9677 3.7311V2.417C5.9677 1.96856 6.2774 1.57862 6.70795 1.50063C7.63705 1.33686 8.61524 1.32906 9.57832 1.49673C10.0127 1.57472 10.3337 1.96077 10.3337 2.417V3.72721C11.1004 4.00796 11.8029 4.4291 12.4071 4.96332L13.5062 4.30822C13.8839 4.08205 14.3711 4.16784 14.6506 4.51489C15.2624 5.27138 15.9045 6.13705 16.2406 7.08071C16.3917 7.50575 16.2444 7.98538 15.8629 8.21544L14.5901 8.87055C14.7374 9.68943 14.7374 10.5278 14.5901 11.3467ZM10.1486 12.1695C12.3845 9.1669 9.06468 5.73931 6.15654 8.04777C3.92067 11.0503 7.24048 14.4779 10.1486 12.1695ZM19.3414 19.2937L19.0317 19.8513C18.9184 20.058 18.6766 20.1438 18.4614 20.0619C18.0157 19.8903 17.6078 19.6447 17.249 19.3366C17.0753 19.1884 17.03 18.9272 17.1433 18.7244L17.453 18.1668C17.1924 17.8548 16.9884 17.4922 16.8524 17.0983H16.2293C16.0027 17.0983 15.8063 16.9307 15.7685 16.6967C15.693 16.2288 15.6892 15.7374 15.7685 15.25C15.8063 15.016 16.0027 14.8445 16.2293 14.8445H16.8524C16.9884 14.4506 17.1924 14.088 17.453 13.776L17.1433 13.2184C17.03 13.0156 17.0715 12.7544 17.249 12.6062C17.6078 12.2981 18.0195 12.0525 18.4614 11.8809C18.6766 11.799 18.9184 11.8848 19.0317 12.0915L19.3414 12.6491C19.7379 12.575 20.142 12.575 20.5386 12.6491L20.8483 12.0915C20.9616 11.8848 21.2033 11.799 21.4186 11.8809C21.8643 12.0525 22.2722 12.2981 22.6309 12.6062C22.8047 12.7544 22.85 13.0156 22.7367 13.2184L22.427 13.776C22.6876 14.088 22.8915 14.4506 23.0275 14.8445H23.6507C23.8773 14.8445 24.0737 15.0121 24.1115 15.2461C24.187 15.714 24.1908 16.2054 24.1115 16.6928C24.0737 16.9268 23.8773 17.0983 23.6507 17.0983H23.0275C22.8915 17.4922 22.6876 17.8548 22.427 18.1668L22.7367 18.7244C22.85 18.9272 22.8085 19.1884 22.6309 19.3366C22.2722 19.6447 21.8605 19.8903 21.4186 20.0619C21.2033 20.1438 20.9616 20.058 20.8483 19.8513L20.5386 19.2937C20.1458 19.3678 19.7379 19.3678 19.3414 19.2937ZM18.9448 16.9969C20.3989 18.1512 22.0569 16.4393 20.9389 14.9381C19.4849 13.7838 17.8269 15.4957 18.9448 16.9969Z" fill="#E9AB01"/>
</svg>
