<svg width="21" height="22" viewBox="0 0 21 22" fill="none" xmlns="http://www.w3.org/2000/svg">
<path d="M10.2938 0.5065C4.60731 0.5065 0 5.2634 0 11.1345C0 17.0056 4.60731 21.7625 10.2938 21.7625C15.9803 21.7625 20.5876 17.0056 20.5876 11.1345C20.5876 5.2634 15.9803 0.5065 10.2938 0.5065ZM10.2938 4.62057C12.3111 4.62057 13.9464 6.30905 13.9464 8.3918C13.9464 10.4746 12.3111 12.163 10.2938 12.163C8.27655 12.163 6.64116 10.4746 6.64116 8.3918C6.64116 6.30905 8.27655 4.62057 10.2938 4.62057ZM10.2938 19.3627C7.85733 19.3627 5.67404 18.2227 4.21299 16.44C4.99332 14.9229 6.52079 13.8772 8.30145 13.8772C8.40107 13.8772 8.50069 13.8944 8.59616 13.9244C9.13575 14.1044 9.70025 14.2201 10.2938 14.2201C10.8874 14.2201 11.456 14.1044 11.9915 13.9244C12.0869 13.8944 12.1865 13.8772 12.2862 13.8772C14.0668 13.8772 15.5943 14.9229 16.3746 16.44C14.9136 18.2227 12.7303 19.3627 10.2938 19.3627Z" fill="#E9AB01"/>
</svg>
