<svg width="21" height="23" viewBox="0 0 21 23" fill="none" xmlns="http://www.w3.org/2000/svg">
<path d="M10.8941 0.850647H19.1171C19.5071 0.850647 19.8811 1.0106 20.1569 1.29533C20.4327 1.58005 20.5876 1.96622 20.5876 2.36888V10.8589C20.5879 11.6528 20.287 12.4152 19.7494 12.9829L12.1587 20.9946C11.8174 21.3472 11.412 21.6269 10.966 21.8177C10.5199 22.0085 10.0418 22.1067 9.5589 22.1067C9.07605 22.1067 8.59793 22.0085 8.15184 21.8177C7.70576 21.6269 7.30045 21.3472 6.95906 20.9946L1.07709 14.9217C0.735615 14.5692 0.464738 14.1507 0.279929 13.6902C0.0951206 13.2296 0 12.736 0 12.2374C0 11.7389 0.0951206 11.2453 0.279929 10.7847C0.464738 10.3241 0.735615 9.90565 1.07709 9.55319L1.08885 9.54104L8.83836 1.71604C9.38743 1.16173 10.1247 0.851142 10.8926 0.850647H10.8941ZM15.4409 8.44183C16.0259 8.44183 16.5869 8.2019 17.0006 7.77481C17.4142 7.34773 17.6466 6.76847 17.6466 6.16448C17.6466 5.56049 17.4142 4.98123 17.0006 4.55414C16.5869 4.12706 16.0259 3.88712 15.4409 3.88712C14.8559 3.88712 14.2948 4.12706 13.8812 4.55414C13.4675 4.98123 13.2351 5.56049 13.2351 6.16448C13.2351 6.76847 13.4675 7.34773 13.8812 7.77481C14.2948 8.2019 14.8559 8.44183 15.4409 8.44183Z" fill="#E9AB01"/>
</svg>
