<svg width="14" height="14" viewBox="0 0 14 14" fill="none" xmlns="http://www.w3.org/2000/svg">
<path d="M12.0305 1.91084C10.8006 0.678039 9.16274 0 7.42214 0C3.82942 0 0.905928 2.92349 0.905928 6.51622C0.905928 7.66389 1.20532 8.78515 1.77476 9.77432L0.850159 13.1498L4.30493 12.2429C5.25594 12.7624 6.3273 13.0354 7.41921 13.0354H7.42214C11.0119 13.0354 14 10.1119 14 6.51915C14 4.77856 13.2603 3.14363 12.0305 1.91084ZM7.42214 11.9376C6.44765 11.9376 5.4937 11.6764 4.66303 11.1832L4.46636 11.0658L2.41757 11.603L2.96353 9.60408L2.83438 9.39861C2.29136 8.53566 2.00664 7.54061 2.00664 6.51622C2.00664 3.53108 4.43701 1.10071 7.42508 1.10071C8.87215 1.10071 10.2312 1.66428 11.2526 2.68867C12.2741 3.71307 12.9022 5.07208 12.8993 6.51915C12.8993 9.50722 10.4073 11.9376 7.42214 11.9376ZM10.3926 7.8811C10.2312 7.79891 9.42984 7.40559 9.28015 7.35276C9.13045 7.29699 9.02185 7.27057 8.91324 7.43494C8.80464 7.59932 8.4935 7.96329 8.39664 8.07482C8.30271 8.18343 8.20585 8.1981 8.04441 8.11592C7.08753 7.63747 6.45939 7.26177 5.82831 6.17866C5.66101 5.89101 5.99562 5.91156 6.30676 5.28929C6.35959 5.18069 6.33317 5.08676 6.29208 5.00457C6.25099 4.92238 5.92518 4.12107 5.79015 3.79526C5.65807 3.47825 5.52305 3.52228 5.42325 3.51641C5.32932 3.51054 5.22072 3.51054 5.11212 3.51054C5.00351 3.51054 4.8274 3.55163 4.6777 3.71307C4.528 3.87744 4.10827 4.27076 4.10827 5.07208C4.10827 5.8734 4.69238 6.6483 4.77163 6.75691C4.85382 6.86551 5.9193 8.50924 7.55423 9.21663C8.58743 9.66279 8.99249 9.70094 9.50909 9.62463C9.82316 9.57766 10.4719 9.23131 10.6069 8.84973C10.7419 8.46815 10.7419 8.14233 10.7008 8.07482C10.6626 8.00144 10.554 7.96035 10.3926 7.8811Z" fill="#04436E"/>
</svg>
