<svg width="50" height="42" viewBox="0 0 50 42" fill="none" xmlns="http://www.w3.org/2000/svg">
<path d="M40.0118 15.3986L39.3712 16.5521C39.1368 16.9797 38.6367 17.1571 38.1914 16.9877C37.2694 16.6328 36.4256 16.1246 35.6834 15.4873C35.324 15.1808 35.2302 14.6403 35.4646 14.2208L36.1053 13.0672C35.5662 12.4219 35.1443 11.6717 34.863 10.8569H33.5738C33.105 10.8569 32.6987 10.5101 32.6206 10.0261C32.4644 9.05804 32.4565 8.04162 32.6206 7.03327C32.6987 6.54926 33.105 6.19432 33.5738 6.19432H34.863C35.1443 5.37957 35.5662 4.62936 36.1053 3.98401L35.4646 2.83046C35.2302 2.41098 35.3162 1.8705 35.6834 1.56396C36.4256 0.926685 37.2772 0.418476 38.1914 0.0635357C38.6367 -0.105868 39.1368 0.0716025 39.3712 0.499144L40.0118 1.6527C40.8322 1.49943 41.6682 1.49943 42.4886 1.6527L43.1293 0.499144C43.3637 0.0716025 43.8637 -0.105868 44.3091 0.0635357C45.231 0.418476 46.0749 0.926685 46.8171 1.56396C47.1765 1.8705 47.2703 2.41098 47.0359 2.83046L46.3952 3.98401C46.9343 4.62936 47.3562 5.37957 47.6375 6.19432H48.9267C49.3954 6.19432 49.8017 6.54119 49.8799 7.0252C50.0361 7.99322 50.0439 9.00964 49.8799 10.018C49.8017 10.502 49.3954 10.8569 48.9267 10.8569H47.6375C47.3562 11.6717 46.9343 12.4219 46.3952 13.0672L47.0359 14.2208C47.2703 14.6403 47.1843 15.1808 46.8171 15.4873C46.0749 16.1246 45.2232 16.6328 44.3091 16.9877C43.8637 17.1571 43.3637 16.9797 43.1293 16.5521L42.4886 15.3986C41.676 15.5518 40.8322 15.5518 40.0118 15.3986ZM39.1915 10.6553C42.1995 13.043 45.6295 9.50171 43.3168 6.39599C40.3088 4.00014 36.8788 7.54954 39.1915 10.6553ZM30.1829 23.0701L32.8159 24.4253C33.6051 24.8932 33.9488 25.8854 33.6363 26.7728C32.941 28.7249 31.5737 30.5158 30.3079 32.0807C29.7298 32.7987 28.7297 32.9762 27.9405 32.5083L25.6669 31.1531C24.4168 32.2582 22.9636 33.1375 21.3775 33.7102V36.4207C21.3775 37.3564 20.729 38.1631 19.8383 38.3245C17.9163 38.6633 15.9005 38.6794 13.9081 38.3245C13.0096 38.1631 12.3455 37.3645 12.3455 36.4207V33.7102C10.7594 33.1294 9.30619 32.2582 8.05609 31.1531L5.78246 32.5002C5.00115 32.9681 3.99325 32.7906 3.41508 32.0727C2.14935 30.5077 0.813301 28.7169 0.117931 26.7728C-0.194595 25.8935 0.149183 24.9013 0.938311 24.4253L3.54009 23.0701C3.23538 21.3841 3.23538 19.6498 3.54009 17.9557L0.938311 16.5924C0.149183 16.1246 -0.202408 15.1324 0.117931 14.2531C0.813301 12.3009 2.14935 10.5101 3.41508 8.9451C3.99325 8.22716 4.99333 8.04969 5.78246 8.51756L8.05609 9.87279C9.30619 8.76763 10.7594 7.88835 12.3455 7.31561V4.59709C12.3455 3.6694 12.9862 2.86272 13.8769 2.70139C15.7989 2.36258 17.8225 2.34645 19.8149 2.69332C20.7134 2.85466 21.3775 3.65327 21.3775 4.59709V7.30754C22.9636 7.88835 24.4168 8.75957 25.6669 9.86472L27.9405 8.5095C28.7219 8.04162 29.7298 8.21909 30.3079 8.93704C31.5737 10.502 32.9019 12.2928 33.5973 14.245C33.9098 15.1243 33.6051 16.1165 32.8159 16.5924L30.1829 17.9477C30.4876 19.6417 30.4876 21.3761 30.1829 23.0701ZM20.9947 24.7722C25.62 18.5608 18.7523 11.47 12.7362 16.2456C8.11078 22.457 14.9785 29.5478 20.9947 24.7722ZM40.0118 39.5103L39.3712 40.6638C39.1368 41.0914 38.6367 41.2688 38.1914 41.0994C37.2694 40.7445 36.4256 40.2363 35.6834 39.599C35.324 39.2925 35.2302 38.752 35.4646 38.3325L36.1053 37.179C35.5662 36.5336 35.1443 35.7834 34.863 34.9687H33.5738C33.105 34.9687 32.6987 34.6218 32.6206 34.1378C32.4644 33.1698 32.4565 32.1533 32.6206 31.145C32.6987 30.661 33.105 30.306 33.5738 30.306H34.863C35.1443 29.4913 35.5662 28.7411 36.1053 28.0957L35.4646 26.9422C35.2302 26.5227 35.3162 25.9822 35.6834 25.6757C36.4256 25.0384 37.2772 24.5302 38.1914 24.1753C38.6367 24.0059 39.1368 24.1833 39.3712 24.6109L40.0118 25.7644C40.8322 25.6112 41.6682 25.6112 42.4886 25.7644L43.1293 24.6109C43.3637 24.1833 43.8637 24.0059 44.3091 24.1753C45.231 24.5302 46.0749 25.0384 46.8171 25.6757C47.1765 25.9822 47.2703 26.5227 47.0359 26.9422L46.3952 28.0957C46.9343 28.7411 47.3562 29.4913 47.6375 30.306H48.9267C49.3954 30.306 49.8017 30.6529 49.8799 31.1369C50.0361 32.1049 50.0439 33.1214 49.8799 34.1297C49.8017 34.6137 49.3954 34.9687 48.9267 34.9687H47.6375C47.3562 35.7834 46.9343 36.5336 46.3952 37.179L47.0359 38.3325C47.2703 38.752 47.1843 39.2925 46.8171 39.599C46.0749 40.2363 45.2232 40.7445 44.3091 41.0994C43.8637 41.2688 43.3637 41.0914 43.1293 40.6638L42.4886 39.5103C41.676 39.6636 40.8322 39.6636 40.0118 39.5103ZM39.1915 34.7589C42.1995 37.1467 45.6295 33.6054 43.3168 30.4996C40.3088 28.1119 36.8788 31.6532 39.1915 34.7589Z" fill="#04436E"/>
</svg>
