<svg width="50" height="52" viewBox="0 0 50 52" fill="none" xmlns="http://www.w3.org/2000/svg">
<path d="M26.4579 0H46.4287C47.3759 0 48.2842 0.388478 48.954 1.07997C49.6237 1.77147 50 2.70934 50 3.68726V24.3064C50.0007 26.2346 49.27 28.0863 47.9644 29.4649L29.5292 48.9226C28.7002 49.7788 27.7158 50.458 26.6324 50.9215C25.549 51.3849 24.3879 51.6234 23.2152 51.6234C22.0425 51.6234 20.8813 51.3849 19.7979 50.9215C18.7146 50.458 17.7302 49.7788 16.9011 48.9226L2.61586 34.1735C1.78655 33.3175 1.12868 32.3012 0.679849 31.1827C0.231014 30.0641 0 28.8652 0 27.6545C0 26.4437 0.231014 25.2448 0.679849 24.1263C1.12868 23.0077 1.78655 21.9914 2.61586 21.1354L2.64443 21.1059L21.4652 2.10174C22.7987 0.755518 24.5893 0.00120282 26.4544 0H26.4579ZM37.5004 18.4363C38.9212 18.4363 40.2837 17.8536 41.2884 16.8163C42.293 15.7791 42.8574 14.3723 42.8574 12.9054C42.8574 11.4385 42.293 10.0317 41.2884 8.99448C40.2837 7.95724 38.9212 7.37452 37.5004 7.37452C36.0797 7.37452 34.7171 7.95724 33.7125 8.99448C32.7078 10.0317 32.1434 11.4385 32.1434 12.9054C32.1434 14.3723 32.7078 15.7791 33.7125 16.8163C34.7171 17.8536 36.0797 18.4363 37.5004 18.4363Z" fill="#04436E"/>
</svg>
