<svg width="75" height="43" viewBox="0 0 75 43" fill="none" xmlns="http://www.w3.org/2000/svg">
<path fill-rule="evenodd" clip-rule="evenodd" d="M12.242 37.229H13.6414C13.9332 37.2202 14.2248 37.2498 14.5085 37.317C14.6815 37.3589 14.8398 37.4453 14.967 37.5672C15.0699 37.6807 15.1415 37.8179 15.1752 37.9659C15.2181 38.2049 15.2363 38.4475 15.2294 38.6901V39.1449C15.2426 39.392 15.2057 39.6392 15.121 39.8723C15.0428 40.0337 14.9049 40.1599 14.7351 40.2254C14.5008 40.3145 14.2503 40.356 13.9991 40.3473H13.6262V42.4541H12.242V37.229ZM13.6327 38.1218V39.4524H13.7346C13.7829 39.4574 13.8318 39.4516 13.8775 39.4357C13.9233 39.4197 13.9648 39.3939 13.9991 39.3602C14.0599 39.2423 14.0851 39.1099 14.0717 38.9785V38.548C14.0717 38.3688 14.0435 38.2522 13.9861 38.1981C13.9286 38.144 13.8116 38.1186 13.6327 38.1186V38.1218ZM22.0875 37.229L22.8776 42.4541H21.4588L21.3829 41.5168H20.8821L20.8073 42.4541H19.37L20.0746 37.229H22.0875ZM21.3504 40.5922C21.2839 39.9999 21.2138 39.2662 21.1401 38.3911C21.0028 39.3941 20.9157 40.1278 20.8789 40.5922H21.3504ZM27.3435 37.229H28.383C29.0518 37.229 29.5059 37.2587 29.7422 37.3202C29.9494 37.3632 30.1384 37.4668 30.2842 37.6171C30.4027 37.7464 30.4823 37.9053 30.514 38.0762C30.5537 38.4065 30.5693 38.7393 30.5606 39.0718V40.9019C30.5606 41.3716 30.5379 41.6843 30.4923 41.8423C30.456 41.9876 30.3737 42.1178 30.2571 42.2145C30.1353 42.3078 29.9927 42.3718 29.8409 42.4011C29.5951 42.4432 29.3456 42.461 29.0962 42.4541H27.3391L27.3435 37.229ZM28.7353 38.1218V41.5624C28.9314 41.5624 29.0529 41.5221 29.0984 41.4447C29.1439 41.3673 29.1667 41.1521 29.1667 40.8032V38.7707C29.1714 38.6184 29.1642 38.4659 29.145 38.3147C29.1391 38.284 29.1263 38.255 29.1075 38.2297C29.0888 38.2044 29.0646 38.1835 29.0366 38.1684C28.9404 38.1292 28.8359 38.1132 28.732 38.1218H28.7353ZM35.2996 37.229H36.2817C36.9363 37.229 37.3797 37.2537 37.6116 37.3032C37.8441 37.3531 38.0477 37.4891 38.1796 37.6828C38.3249 37.8853 38.3964 38.213 38.3964 38.6551C38.3964 39.0615 38.3451 39.3347 38.2425 39.4747C38.1395 39.6147 37.9357 39.6974 37.6322 39.726C37.9065 39.7928 38.0929 39.8819 38.1861 39.9942C38.2683 40.082 38.3285 40.1873 38.3617 40.3017C38.3952 40.558 38.4068 40.8165 38.3964 41.0747V42.4531H37.1044V40.7163C37.1044 40.4364 37.0827 40.2636 37.0372 40.1968C36.9916 40.13 36.8757 40.0907 36.686 40.0907V42.4541H35.2953L35.2996 37.229ZM36.6827 38.1218V39.2881C36.7949 39.2972 36.9075 39.2755 37.0079 39.2255C37.0697 39.1831 37.1011 39.0463 37.1011 38.8173V38.531C37.1011 38.3646 37.0708 38.2554 37.0111 38.2034C36.9147 38.1427 36.8001 38.1158 36.686 38.1271L36.6827 38.1218ZM46.3179 40.2922C46.3179 40.8167 46.3052 41.1881 46.2799 41.4066C46.2551 41.6281 46.17 41.8391 46.0335 42.0175C45.897 42.196 45.7141 42.3354 45.5038 42.4213C45.2535 42.5226 44.9845 42.5721 44.7136 42.5665C44.4507 42.5702 44.1896 42.5233 43.9451 42.4287C43.7267 42.3446 43.5367 42.2025 43.3966 42.0183C43.2625 41.8438 43.1773 41.638 43.1495 41.4214C43.1171 41.0459 43.104 40.669 43.1105 40.2922V39.3984C43.1041 39.0265 43.1168 38.6546 43.1484 38.284C43.1727 38.0623 43.2576 37.851 43.3942 37.6725C43.5307 37.4939 43.7139 37.3547 43.9245 37.2693C44.1743 37.1675 44.4431 37.118 44.7136 37.124C44.9768 37.1199 45.2383 37.1664 45.4832 37.2608C45.6953 37.3444 45.8807 37.4819 46.0203 37.6589C46.16 37.836 46.2488 38.0463 46.2778 38.2681C46.3112 38.6439 46.3246 39.0212 46.3179 39.3984V40.2922ZM44.9261 38.5756C44.9354 38.4193 44.9219 38.2626 44.886 38.1101C44.8736 38.078 44.8507 38.0508 44.821 38.0326C44.7912 38.0144 44.7562 38.0062 44.7212 38.0094C44.6889 38.008 44.6568 38.0149 44.6281 38.0294C44.5994 38.0439 44.5751 38.0655 44.5575 38.0921C44.5207 38.1462 44.5012 38.3041 44.5012 38.5756V41.0142C44.4913 41.2016 44.5037 41.3895 44.538 41.5741C44.5499 41.6084 44.5736 41.6377 44.605 41.657C44.6363 41.6763 44.6736 41.6845 44.7104 41.6801C44.75 41.6836 44.7895 41.6733 44.8221 41.651C44.8546 41.6287 44.878 41.5958 44.8881 41.5582C44.9228 41.3658 44.9356 41.1702 44.9261 40.975V38.5756ZM46.1087 36.455C46.0336 36.6399 45.9033 36.7985 45.7347 36.9099C45.619 36.9859 45.4847 37.0306 45.3456 37.0392C45.1714 37.036 44.9995 37 44.8394 36.9332L44.5955 36.8346C44.4858 36.7829 44.3676 36.7506 44.2464 36.7391C44.0828 36.7391 43.9484 36.8452 43.8432 37.0636L43.3229 36.7285C43.5657 36.3129 43.8392 36.1047 44.1435 36.104C44.3216 36.1087 44.4975 36.1446 44.6627 36.2101L44.8665 36.2843C44.9783 36.3317 45.0966 36.3632 45.2177 36.3776C45.3037 36.3796 45.3876 36.3515 45.4543 36.2982C45.5209 36.2449 45.5658 36.17 45.5808 36.0871L46.1087 36.455ZM51.0633 37.2301H53.3786V38.2745H52.454V39.2732H53.3212V40.2646H52.454V41.414H53.4729V42.4541H51.0666L51.0633 37.2301ZM61.0291 38.8205H59.7392V38.425C59.7495 38.3077 59.7328 38.1896 59.6904 38.0794C59.6722 38.0541 59.6474 38.034 59.6187 38.0212C59.5899 38.0083 59.5582 38.0032 59.5268 38.0062C59.4888 38.0046 59.4511 38.0132 59.4177 38.0309C59.3843 38.0487 59.3564 38.0749 59.3371 38.1069C59.2883 38.2002 59.2662 38.3046 59.2731 38.4091C59.2654 38.5436 59.2903 38.678 59.3457 38.8014C59.3934 38.8884 59.5246 38.9954 59.7392 39.1195C60.3549 39.48 60.7429 39.7755 60.9034 40.0059C61.0638 40.2363 61.144 40.6071 61.144 41.1182C61.144 41.4903 61.0985 41.7639 61.0096 41.9409C60.8943 42.1415 60.7127 42.2978 60.4947 42.3841C60.2157 42.5089 59.9115 42.5702 59.6048 42.5633C59.2753 42.5725 58.9486 42.5015 58.6542 42.3566C58.4211 42.2487 58.2375 42.0597 58.1393 41.8264C58.0465 41.5328 58.0054 41.2259 58.0179 40.9188V40.5763H59.3078V41.2125C59.296 41.3407 59.3142 41.4697 59.3609 41.59C59.3825 41.6195 59.4118 41.6428 59.4457 41.6576C59.4796 41.6723 59.517 41.6779 59.5539 41.6737C59.5948 41.6762 59.6357 41.6676 59.672 41.6489C59.7083 41.6302 59.7387 41.6021 59.7598 41.5677C59.8112 41.4696 59.8345 41.3597 59.827 41.2496C59.827 40.9432 59.7847 40.7417 59.6991 40.6484C59.4985 40.4696 59.2807 40.3102 59.0487 40.1724C58.8093 40.0253 58.5804 39.8623 58.3637 39.6846C58.2397 39.5655 58.1449 39.4205 58.0862 39.2605C58.0069 39.0411 57.9702 38.8092 57.9778 38.5766C57.9778 38.1765 58.0302 37.8843 58.135 37.6998C58.2499 37.5047 58.4274 37.3522 58.6401 37.2661C58.9059 37.1549 59.1933 37.1013 59.4823 37.1092C59.798 37.1008 60.1119 37.159 60.4026 37.2799C60.6179 37.3602 60.7967 37.5133 60.9066 37.7114C60.9879 37.8843 61.0302 38.178 61.0302 38.5925L61.0291 38.8205Z" fill="url(#paint0_linear_56_3)"/>
<path fill-rule="evenodd" clip-rule="evenodd" d="M0 32.9019L11.6957 28.6523L12.6713 15.9489L1.56304 1.39534L0 32.9019ZM54.3759 25.8256H59.6774C61.4713 25.8256 62.7309 25.5075 63.4712 24.8904C64.2115 24.2733 64.5747 23.4431 64.5747 22.3944C64.5747 21.4211 64.2148 20.6407 63.4907 20.0501C62.7666 19.4596 61.4865 19.1616 59.6622 19.1616H54.0258L54.3759 25.8256ZM53.7006 12.9122H58.9035C60.5294 12.9122 61.6621 12.6387 62.2941 12.0926C62.926 11.5466 63.249 10.7524 63.249 9.71864C63.249 8.76438 62.9238 8.01263 62.2941 7.474C61.6643 6.93537 60.5478 6.66288 58.9739 6.66288H53.3927L53.7006 12.9122ZM42.3051 0H63.3726C66.615 0 69.1048 0.786029 70.842 2.35809C72.5792 3.93015 73.4485 5.87402 73.45 8.1897C73.45 10.1357 72.8289 11.8032 71.5867 13.1922C70.765 14.1263 69.5499 14.8536 67.9609 15.3965C70.3802 15.9638 72.1503 16.9371 73.2928 18.3229C74.4353 19.7087 75 21.4476 75 23.5385C75 25.2466 74.5935 26.7777 73.786 28.1423C72.9867 29.4868 71.8393 30.6014 70.4594 31.3741C69.5821 31.8639 68.264 32.2212 66.5052 32.446C64.1638 32.745 62.6138 32.8977 61.8442 32.8977H43.9386L42.3051 0ZM43.0281 32.9019L31.3345 28.6523L30.359 15.9288L41.4629 1.40277L43.0281 32.9019ZM1.6335 0L21.4967 26.0376L41.3957 0H29.1472L21.4967 9.04218L13.8853 0H1.6335Z" fill="url(#paint1_linear_56_3)"/>
<defs>
<linearGradient id="paint0_linear_56_3" x1="36.693" y1="35.5324" x2="36.693" y2="43.5497" gradientUnits="userSpaceOnUse">
<stop offset="0.05" stop-color="white"/>
<stop offset="0.63" stop-color="#CDD1D2"/>
<stop offset="1" stop-color="#788794"/>
</linearGradient>
<linearGradient id="paint1_linear_56_3" x1="37.5" y1="-2.81654" x2="37.5" y2="37.8922" gradientUnits="userSpaceOnUse">
<stop offset="0.05" stop-color="white"/>
<stop offset="0.63" stop-color="#CDD1D2"/>
<stop offset="1" stop-color="#788794"/>
</linearGradient>
</defs>
</svg>
