<svg width="100" height="59" viewBox="0 0 100 59" fill="none" xmlns="http://www.w3.org/2000/svg">
<path fill-rule="evenodd" clip-rule="evenodd" d="M25.4637 47.3913H26.8231C27.1065 47.3826 27.3898 47.4118 27.6654 47.4781C27.8334 47.5193 27.9872 47.6046 28.1108 47.7249C28.2108 47.8367 28.2803 47.9721 28.313 48.118C28.3547 48.3538 28.3724 48.5931 28.3657 48.8323V49.2809C28.3785 49.5246 28.3427 49.7684 28.2604 49.9983C28.1845 50.1574 28.0505 50.2819 27.8855 50.3465C27.6579 50.4344 27.4146 50.4753 27.1705 50.4668H26.8083V52.5446H25.4637V47.3913ZM26.8146 48.2718V49.5842H26.9136C26.9606 49.589 27.008 49.5834 27.0525 49.5676C27.0969 49.5519 27.1373 49.5265 27.1705 49.4932C27.2296 49.3769 27.2541 49.2463 27.2411 49.1167V48.6922C27.2411 48.5154 27.2137 48.4004 27.1579 48.3471C27.1021 48.2937 26.9884 48.2686 26.8146 48.2686V48.2718ZM35.0278 47.3913L35.7954 52.5446H34.4171L34.3434 51.6202H33.8569L33.7842 52.5446H32.388L33.0724 47.3913H35.0278ZM34.3118 50.7083C34.2472 50.1241 34.1791 49.4005 34.1075 48.5374C33.9741 49.5267 33.8895 50.2503 33.8537 50.7083H34.3118ZM40.1337 47.3913H41.1435C41.7931 47.3913 42.2343 47.4205 42.4639 47.4812C42.6652 47.5237 42.8487 47.6258 42.9904 47.774C43.1055 47.9015 43.1828 48.0583 43.2136 48.2268C43.2522 48.5526 43.2673 48.8808 43.2589 49.2087V51.0137C43.2589 51.4769 43.2368 51.7854 43.1925 51.9412C43.1573 52.0845 43.0773 52.213 42.964 52.3083C42.8457 52.4004 42.7072 52.4634 42.5597 52.4923C42.321 52.5339 42.0786 52.5514 41.8363 52.5446H40.1294L40.1337 47.3913ZM41.4857 48.2718V51.6652C41.6763 51.6652 41.7942 51.6254 41.8384 51.5491C41.8826 51.4728 41.9048 51.2605 41.9048 50.9164V48.9118C41.9094 48.7616 41.9023 48.6112 41.8837 48.4621C41.8779 48.4318 41.8655 48.4032 41.8473 48.3782C41.8291 48.3533 41.8056 48.3327 41.7784 48.3178C41.6849 48.2791 41.5834 48.2633 41.4825 48.2718H41.4857ZM47.8625 47.3913H48.8165C49.4524 47.3913 49.8831 47.4157 50.1085 47.4645C50.3342 47.5136 50.532 47.6478 50.6602 47.8388C50.8013 48.0386 50.8708 48.3617 50.8708 48.7978C50.8708 49.1986 50.821 49.4681 50.7213 49.6061C50.6213 49.7442 50.4233 49.8257 50.1285 49.854C50.3949 49.9198 50.576 50.0077 50.6665 50.1185C50.7464 50.2051 50.8048 50.3089 50.8371 50.4218C50.8696 50.6745 50.8809 50.9295 50.8708 51.1841V52.5436H49.6157V50.8307C49.6157 50.5546 49.5946 50.3842 49.5504 50.3183C49.5062 50.2524 49.3935 50.2137 49.2092 50.2137V52.5446H47.8583L47.8625 47.3913ZM49.2061 48.2718V49.4221C49.3151 49.4311 49.4245 49.4097 49.5219 49.3604C49.582 49.3185 49.6125 49.1837 49.6125 48.9578V48.6754C49.6125 48.5112 49.583 48.4035 49.5251 48.3523C49.4314 48.2925 49.3201 48.2659 49.2092 48.277L49.2061 48.2718ZM58.5659 50.4124C58.5659 50.9297 58.5536 51.296 58.5291 51.5114C58.5049 51.73 58.4222 51.938 58.2897 52.114C58.1571 52.2901 57.9794 52.4275 57.7751 52.5122C57.532 52.6122 57.2706 52.661 57.0075 52.6555C56.7521 52.6591 56.4985 52.6129 56.261 52.5195C56.0488 52.4367 55.8642 52.2965 55.7282 52.1148C55.5979 51.9427 55.5151 51.7398 55.4881 51.5261C55.4566 51.1557 55.4439 50.784 55.4502 50.4124V49.5308C55.444 49.1641 55.4563 48.7973 55.487 48.4318C55.5106 48.2131 55.5931 48.0048 55.7257 47.8287C55.8584 47.6526 56.0364 47.5152 56.241 47.431C56.4836 47.3306 56.7447 47.2818 57.0075 47.2877C57.2632 47.2837 57.5172 47.3295 57.7551 47.4226C57.9611 47.5051 58.1412 47.6406 58.2769 47.8153C58.4125 47.9899 58.4989 48.1973 58.527 48.4161C58.5595 48.7867 58.5725 49.1588 58.5659 49.5308V50.4124ZM57.2139 48.7193C57.2229 48.5653 57.2098 48.4107 57.1749 48.2603C57.1629 48.2286 57.1407 48.2017 57.1118 48.1838C57.0829 48.1659 57.0488 48.1578 57.0149 48.1609C56.9835 48.1596 56.9524 48.1664 56.9245 48.1807C56.8966 48.195 56.8729 48.2163 56.8559 48.2425C56.8201 48.2958 56.8011 48.4516 56.8011 48.7193V51.1245C56.7915 51.3093 56.8036 51.4946 56.8369 51.6767C56.8485 51.7105 56.8715 51.7394 56.902 51.7585C56.9324 51.7775 56.9686 51.7856 57.0044 51.7812C57.0428 51.7847 57.0813 51.7746 57.1129 51.7525C57.1445 51.7305 57.1672 51.6981 57.177 51.661C57.2107 51.4712 57.2231 51.2783 57.2139 51.0858V48.7193ZM58.3627 46.6279C58.2898 46.8103 58.1632 46.9667 57.9994 47.0765C57.887 47.1515 57.7566 47.1956 57.6214 47.2041C57.4522 47.201 57.2853 47.1655 57.1297 47.0995L56.8927 47.0023C56.7862 46.9513 56.6714 46.9194 56.5537 46.9081C56.3947 46.9081 56.2641 47.0127 56.162 47.2281L55.6566 46.8977C55.8924 46.4878 56.1581 46.2824 56.4537 46.2817C56.6267 46.2863 56.7976 46.3217 56.958 46.3863L57.156 46.4595C57.2647 46.5063 57.3796 46.5373 57.4971 46.5515C57.5807 46.5536 57.6623 46.5258 57.727 46.4732C57.7917 46.4206 57.8353 46.3468 57.8499 46.265L58.3627 46.6279ZM63.1758 47.3923H65.425V48.4224H64.5268V49.4074H65.3692V50.3852H64.5268V51.5188H65.5166V52.5446H63.179L63.1758 47.3923ZM72.8568 48.9609H71.6038V48.5709C71.6138 48.4551 71.5976 48.3386 71.5564 48.2299C71.5387 48.205 71.5146 48.1852 71.4867 48.1726C71.4588 48.1599 71.428 48.1548 71.3974 48.1578C71.3605 48.1563 71.3239 48.1647 71.2915 48.1822C71.259 48.1997 71.2319 48.2256 71.2131 48.2571C71.1658 48.3491 71.1443 48.4521 71.151 48.5552C71.1436 48.6879 71.1677 48.8204 71.2216 48.9421C71.2679 49.0278 71.3953 49.1335 71.6038 49.2558C72.2019 49.6114 72.5788 49.9028 72.7347 50.13C72.8905 50.3573 72.9684 50.723 72.9684 51.227C72.9684 51.5941 72.9242 51.8639 72.8379 52.0385C72.7259 52.2363 72.5495 52.3904 72.3377 52.4756C72.0667 52.5987 71.7711 52.6591 71.4732 52.6523C71.1531 52.6614 70.8358 52.5913 70.5498 52.4484C70.3234 52.342 70.145 52.1556 70.0496 51.9256C69.9594 51.636 69.9196 51.3333 69.9317 51.0304V50.6926H71.1847V51.3201C71.1733 51.4465 71.1909 51.5738 71.2363 51.6924C71.2573 51.7215 71.2857 51.7445 71.3187 51.759C71.3516 51.7735 71.3879 51.7791 71.4237 51.775C71.4635 51.7774 71.5032 51.7689 71.5385 51.7505C71.5738 51.732 71.6033 51.7043 71.6238 51.6704C71.6738 51.5736 71.6963 51.4652 71.6891 51.3567C71.6891 51.0545 71.648 50.8558 71.5648 50.7637C71.37 50.5874 71.1584 50.4301 70.9331 50.2942C70.7004 50.1491 70.4781 49.9884 70.2676 49.8132C70.1472 49.6957 70.055 49.5527 69.998 49.3949C69.921 49.1785 69.8853 48.9498 69.8927 48.7204C69.8927 48.3258 69.9436 48.0375 70.0454 47.8556C70.157 47.6632 70.3295 47.5128 70.5361 47.4279C70.7943 47.3181 71.0735 47.2653 71.3542 47.2731C71.6609 47.2648 71.9659 47.3222 72.2482 47.4415C72.4574 47.5207 72.6311 47.6717 72.7378 47.8671C72.8168 48.0375 72.8579 48.3272 72.8579 48.7361L72.8568 48.9609Z" fill="#788794"/>
<path fill-rule="evenodd" clip-rule="evenodd" d="M13.5714 43.1237L24.933 38.9324L25.8807 26.4035L15.0898 12.0498L13.5714 43.1237ZM66.3937 36.1445H71.5438C73.2864 36.1445 74.51 35.8308 75.2292 35.2221C75.9484 34.6135 76.3011 33.7947 76.3011 32.7605C76.3011 31.8005 75.9515 31.0308 75.2481 30.4484C74.5448 29.8659 73.3012 29.572 71.529 29.572H66.0536L66.3937 36.1445ZM65.7377 23.4085H70.792C72.3714 23.4085 73.4718 23.1387 74.0857 22.6002C74.6995 22.0616 75.0133 21.2783 75.0133 20.2588C75.0133 19.3176 74.6974 18.5762 74.0857 18.0449C73.4739 17.5137 72.3893 17.245 70.8604 17.245H65.4387L65.7377 23.4085ZM54.6678 10.6736H75.1334C78.2831 10.6736 80.7018 11.4488 82.3894 12.9993C84.0769 14.5498 84.9214 16.4669 84.9228 18.7508C84.9228 20.6701 84.3195 22.3147 83.1128 23.6846C82.3146 24.6059 81.1342 25.3232 79.5906 25.8587C81.9408 26.4181 83.6603 27.3781 84.7701 28.7449C85.88 30.1116 86.4286 31.8266 86.4286 33.8888C86.4286 35.5735 86.0337 37.0835 85.2492 38.4294C84.4728 39.7554 83.3582 40.8548 82.0177 41.6168C81.1655 42.0999 79.8851 42.4523 78.1764 42.674C75.902 42.9689 74.3963 43.1195 73.6487 43.1195H56.2546L54.6678 10.6736ZM55.3702 43.1237L44.0107 38.9324L43.063 26.3836L53.8497 12.0571L55.3702 43.1237ZM15.1583 10.6736L34.4539 36.3536L53.7844 10.6736H41.8858L34.4539 19.5916L27.06 10.6736H15.1583Z" fill="url(#paint0_linear_40_24)"/>
<defs>
<linearGradient id="paint0_linear_40_24" x1="50" y1="10.6736" x2="50" y2="43.1237" gradientUnits="userSpaceOnUse">
<stop stop-color="#CDD1D2"/>
<stop offset="0.21" stop-color="#C9CDCF"/>
<stop offset="0.43" stop-color="#BCC2C5"/>
<stop offset="0.66" stop-color="#A6AFB6"/>
<stop offset="0.89" stop-color="#8895A0"/>
<stop offset="1" stop-color="#788794"/>
</linearGradient>
</defs>
</svg>
